<svg width="22" height="21" viewBox="0 0 22 21" fill="none" xmlns="http://www.w3.org/2000/svg">
<path d="M16.4081 19.83C16.1149 19.83 15.8218 19.7544 15.5569 19.5936L11.7644 17.3426C11.3672 17.3331 10.97 17.3048 10.5917 17.2481C10.3363 17.2103 10.1188 17.0399 10.0242 16.794C9.92966 16.5481 9.97695 16.2833 10.1472 16.0847C10.7714 15.3565 11.0929 14.4864 11.0929 13.5595C11.0929 11.2708 9.07848 9.40766 6.60057 9.40766C5.67372 9.40766 4.7847 9.66311 4.03755 10.1549C3.82948 10.2873 3.57413 10.3062 3.34714 10.2022C3.12962 10.0982 2.96885 9.89 2.94048 9.6441C2.9121 9.37929 2.89319 9.11457 2.89319 8.8403C2.89319 4.14929 6.95996 0.337891 11.9536 0.337891C16.9472 0.337891 21.014 4.14929 21.014 8.8403C21.014 11.4128 19.8223 13.7771 17.7227 15.3943L18.0443 17.9669C18.1199 18.61 17.8362 19.2153 17.2971 19.5652C17.0323 19.7354 16.7202 19.83 16.4081 19.83ZM11.9441 15.9145C12.0765 15.905 12.2089 15.943 12.3224 16.0186L16.2852 18.3736C16.3892 18.4398 16.4743 18.4114 16.5311 18.3736C16.5784 18.3452 16.654 18.2695 16.6351 18.1371L16.2663 15.1484C16.2379 14.8836 16.3514 14.6283 16.5594 14.477C18.4888 13.1246 19.5953 11.0627 19.5953 8.82129C19.5953 4.91534 16.1717 1.7376 11.9536 1.7376C7.89626 1.7376 4.56717 4.6884 4.32128 8.39578C5.0306 8.12151 5.79667 7.97017 6.59111 7.97017C9.854 7.97017 12.5021 10.4669 12.5021 13.5406C12.5116 14.3729 12.313 15.1768 11.9441 15.9145Z" fill="#292D32"/>
<path d="M3.83865 20.6623C3.59276 20.6623 3.35632 20.5961 3.13879 20.4543C2.7132 20.18 2.48623 19.7071 2.54297 19.2059L2.73212 17.7494C1.45534 16.7091 0.69873 15.1675 0.69873 13.5502C0.69873 11.706 1.66342 9.98471 3.28067 8.95383C4.2548 8.32018 5.40862 7.97974 6.60973 7.97974C9.87263 7.97974 12.5208 10.4765 12.5208 13.5502C12.5208 14.7986 12.0668 16.0281 11.2345 17.0022C10.1658 18.2979 8.56746 19.0545 6.80834 19.1113L4.50069 20.4826C4.29262 20.6056 4.06564 20.6623 3.83865 20.6623ZM6.60028 9.39834C5.67343 9.39834 4.78441 9.65369 4.03726 10.1455C2.82668 10.921 2.10791 12.1883 2.10791 13.5502C2.10791 14.8648 2.75104 16.0659 3.88595 16.8415C4.10348 16.9928 4.21696 17.2481 4.18859 17.513L3.98052 19.1302L6.24089 17.7872C6.35438 17.721 6.47733 17.6832 6.60028 17.6832C7.99054 17.6832 9.30518 17.0874 10.1374 16.0754C10.7616 15.3377 11.0927 14.4676 11.0927 13.5408C11.0927 11.2615 9.0782 9.39834 6.60028 9.39834Z" fill="#292D32"/>
</svg>
