<svg width="17" height="21" viewBox="0 0 17 21" fill="none" xmlns="http://www.w3.org/2000/svg">
<path d="M8.61784 18.5719C6.41417 18.5719 4.21053 18.2219 2.12039 17.5221C1.32595 17.2478 0.720656 16.6898 0.455842 15.9615C0.181569 15.2333 0.276146 14.4294 0.711199 13.7106L1.79883 11.9042C2.02581 11.5259 2.23388 10.7693 2.23388 10.3247V7.59148C2.23388 4.07321 5.09956 1.20752 8.61784 1.20752C12.1361 1.20752 15.0018 4.07321 15.0018 7.59148V10.3247C15.0018 10.7598 15.2098 11.5259 15.4368 11.9136L16.515 13.7106C16.9217 14.3916 16.9973 15.2144 16.7231 15.9615C16.4488 16.7087 15.8529 17.2762 15.1058 17.5221C13.0251 18.2219 10.8215 18.5719 8.61784 18.5719ZM8.61784 2.62618C5.88454 2.62618 3.65253 4.84874 3.65253 7.59148V10.3247C3.65253 11.0152 3.3688 12.0366 3.01887 12.6324L1.93124 14.4389C1.72317 14.7888 1.66642 15.1576 1.78937 15.4697C1.90286 15.7913 2.18659 16.0372 2.57436 16.1696C6.52766 17.4937 10.7174 17.4937 14.6707 16.1696C15.0112 16.0561 15.276 15.8008 15.399 15.4603C15.5219 15.1198 15.4936 14.751 15.3044 14.4389L14.2168 12.6324C13.8574 12.0177 13.5831 11.0057 13.5831 10.3153V7.59148C13.5831 4.84874 11.3606 2.62618 8.61784 2.62618Z" fill="#292D32"/>
<path d="M10.3768 2.88182C10.3106 2.88182 10.2444 2.87236 10.1782 2.85344C9.90388 2.77778 9.63907 2.72103 9.38371 2.6832C8.57981 2.57917 7.80428 2.63592 7.07604 2.85344C6.81123 2.93856 6.52752 2.85344 6.34783 2.65483C6.16813 2.45622 6.11139 2.17249 6.21542 1.91713C6.60319 0.924067 7.54892 0.271484 8.6271 0.271484C9.70527 0.271484 10.651 0.91461 11.0388 1.91713C11.1334 2.17249 11.0861 2.45622 10.9064 2.65483C10.7645 2.80615 10.5659 2.88182 10.3768 2.88182Z" fill="#292D32"/>
<path d="M8.6174 20.7283C7.68109 20.7283 6.77315 20.35 6.11114 19.6879C5.44911 19.0259 5.0708 18.118 5.0708 17.1816H6.48945C6.48945 17.7396 6.71641 18.2882 7.11363 18.6854C7.51085 19.0826 8.05939 19.3096 8.6174 19.3096C9.79015 19.3096 10.7454 18.3544 10.7454 17.1816H12.164C12.164 19.1394 10.5751 20.7283 8.6174 20.7283Z" fill="#292D32"/>
</svg>
