<svg width="23" height="23" viewBox="0 0 23 23" fill="none" xmlns="http://www.w3.org/2000/svg">
<path d="M11.1354 21.2501C5.4854 21.2501 0.885376 16.6501 0.885376 11C0.885376 5.35002 5.4854 0.75 11.1354 0.75C16.7854 0.75 21.3855 5.35002 21.3855 11C21.3855 16.6501 16.7854 21.2501 11.1354 21.2501ZM11.1354 2.25001C6.3054 2.25001 2.38538 6.18003 2.38538 11C2.38538 15.8201 6.3054 19.7501 11.1354 19.7501C15.9654 19.7501 19.8855 15.8201 19.8855 11C19.8855 6.18003 15.9654 2.25001 11.1354 2.25001Z" fill="#292D32"/>
<path d="M21.6359 22.25C21.4459 22.25 21.2559 22.18 21.1059 22.03L19.1059 20.0299C18.8159 19.7399 18.8159 19.2599 19.1059 18.9699C19.3959 18.6799 19.8759 18.6799 20.1659 18.9699L22.1659 20.97C22.4559 21.26 22.4559 21.74 22.1659 22.03C22.0159 22.18 21.8259 22.25 21.6359 22.25Z" fill="#292D32"/>
</svg>
