<svg width="22" height="21" viewBox="0 0 22 21" fill="none" xmlns="http://www.w3.org/2000/svg">
<path d="M16.6147 20.6466H5.67276C3.08375 20.6466 0.986084 18.5395 0.986084 15.9505V8.94881C0.986084 7.66372 1.7798 6.04796 2.80028 5.25424L7.89327 1.28569C9.424 0.0951223 11.8713 0.0384288 13.4587 1.1534L19.2982 5.24479C20.4226 6.02906 21.3013 7.71097 21.3013 9.0811V15.9599C21.3013 18.5395 19.2037 20.6466 16.6147 20.6466ZM8.76257 2.40066L3.66959 6.36922C2.99871 6.89836 2.40343 8.09838 2.40343 8.94881V15.9505C2.40343 17.7552 3.86801 19.2293 5.67276 19.2293H16.6147C18.4194 19.2293 19.884 17.7647 19.884 15.9599V9.0811C19.884 8.17397 19.232 6.91726 18.4855 6.40701L12.6461 2.31562C11.5689 1.55971 9.79251 1.5975 8.76257 2.40066Z" fill="#292D32"/>
<path d="M11.1437 16.867C10.7563 16.867 10.4351 16.5458 10.4351 16.1583V13.3237C10.4351 12.9363 10.7563 12.615 11.1437 12.615C11.5311 12.615 11.8524 12.9363 11.8524 13.3237V16.1583C11.8524 16.5458 11.5311 16.867 11.1437 16.867Z" fill="#292D32"/>
</svg>
