<svg width="21" height="19" viewBox="0 0 21 19" fill="none" xmlns="http://www.w3.org/2000/svg">
<path d="M13.9046 18.5202C13.4925 18.5202 13.0805 18.434 12.7451 18.2711L7.71415 15.7508C7.42667 15.6071 6.86129 15.6167 6.58339 15.7796L4.32189 17.0732C3.34446 17.629 2.33828 17.7057 1.58125 17.2553C0.814642 16.8145 0.383423 15.9137 0.383423 14.783V5.46862C0.383423 4.5966 0.958382 3.60959 1.71541 3.17837L5.8647 0.801877C6.56423 0.399406 7.6279 0.370658 8.3466 0.734798L13.3775 3.25503C13.665 3.39877 14.2208 3.37961 14.5083 3.22628L16.7602 1.94221C17.7376 1.38642 18.7438 1.30976 19.5008 1.76014C20.2675 2.20094 20.6987 3.10171 20.6987 4.23246V13.5564C20.6987 14.4284 20.1237 15.4154 19.3667 15.8466L15.2174 18.2231C14.8533 18.4148 14.3741 18.5202 13.9046 18.5202ZM7.1871 14.2176C7.59915 14.2176 8.01121 14.3038 8.3466 14.4667L13.3775 16.987C13.665 17.1307 14.2208 17.1116 14.5083 16.9582L18.6576 14.5817C18.9642 14.4093 19.2613 13.8918 19.2613 13.5468V4.22288C19.2613 3.61917 19.0888 3.16879 18.7726 2.9963C18.4659 2.82381 17.9868 2.89089 17.4693 3.18795L15.2174 4.47203C14.5179 4.8745 13.4542 4.90324 12.7355 4.5391L7.70456 2.01887C7.41708 1.87513 6.86129 1.8943 6.57381 2.04762L2.42453 4.42411C2.11788 4.5966 1.82082 5.11406 1.82082 5.46862V14.7926C1.82082 15.3963 1.99331 15.8466 2.29995 16.0191C2.6066 16.2012 3.08573 16.1245 3.61277 15.8275L5.8647 14.5434C6.23842 14.323 6.71755 14.2176 7.1871 14.2176Z" fill="#292D32"/>
<path d="M7.11189 15.0127C6.719 15.0127 6.39319 14.6869 6.39319 14.294V1.83662C6.39319 1.44373 6.719 1.11792 7.11189 1.11792C7.50477 1.11792 7.83058 1.44373 7.83058 1.83662V14.294C7.83058 14.6869 7.50477 15.0127 7.11189 15.0127Z" fill="#292D32"/>
<path d="M13.9826 17.8876C13.5897 17.8876 13.2639 17.5618 13.2639 17.1689V4.34736C13.2639 3.95447 13.5897 3.62866 13.9826 3.62866C14.3755 3.62866 14.7013 3.95447 14.7013 4.34736V17.1689C14.7013 17.5618 14.3755 17.8876 13.9826 17.8876Z" fill="#292D32"/>
</svg>
